<svg width="124" height="124" viewBox="0 0 124 124" fill="none" xmlns="http://www.w3.org/2000/svg">
<mask id="mask0_130_610" style="mask-type:alpha" maskUnits="userSpaceOnUse" x="0" y="0" width="124" height="124">
<rect width="124" height="124" fill="#D9D9D9"/>
</mask>
<g mask="url(#mask0_130_610)">
<path d="M30.2252 88.35C34.6168 84.9917 39.5252 82.3438 44.9502 80.4063C50.3752 78.4688 56.0585 77.5 62.0002 77.5C67.9418 77.5 73.6252 78.4688 79.0502 80.4063C84.4752 82.3438 89.3835 84.9917 93.7752 88.35C96.7891 84.8195 99.1356 80.8153 100.815 76.3375C102.494 71.8597 103.334 67.0806 103.334 62C103.334 50.5472 99.3078 40.7951 91.2564 32.7438C83.205 24.6924 73.4529 20.6667 62.0002 20.6667C50.5474 20.6667 40.7953 24.6924 32.7439 32.7438C24.6925 40.7951 20.6668 50.5472 20.6668 62C20.6668 67.0806 21.5064 71.8597 23.1856 76.3375C24.8647 80.8153 27.2113 84.8195 30.2252 88.35ZM62.0002 67.1667C56.9196 67.1667 52.6356 65.4229 49.1481 61.9354C45.6606 58.4479 43.9168 54.1639 43.9168 49.0833C43.9168 44.0028 45.6606 39.7188 49.1481 36.2313C52.6356 32.7438 56.9196 31 62.0002 31C67.0807 31 71.3647 32.7438 74.8522 36.2313C78.3398 39.7188 80.0835 44.0028 80.0835 49.0833C80.0835 54.1639 78.3398 58.4479 74.8522 61.9354C71.3647 65.4229 67.0807 67.1667 62.0002 67.1667ZM62.0002 113.667C54.8529 113.667 48.1363 112.31 41.8502 109.598C35.5641 106.885 30.096 103.204 25.446 98.5542C20.796 93.9042 17.1147 88.4361 14.4022 82.15C11.6897 75.8639 10.3335 69.1472 10.3335 62C10.3335 54.8528 11.6897 48.1361 14.4022 41.85C17.1147 35.5639 20.796 30.0958 25.446 25.4458C30.096 20.7958 35.5641 17.1146 41.8502 14.4021C48.1363 11.6896 54.8529 10.3333 62.0002 10.3333C69.1474 10.3333 75.8641 11.6896 82.1502 14.4021C88.4363 17.1146 93.9043 20.7958 98.5543 25.4458C103.204 30.0958 106.886 35.5639 109.598 41.85C112.311 48.1361 113.667 54.8528 113.667 62C113.667 69.1472 112.311 75.8639 109.598 82.15C106.886 88.4361 103.204 93.9042 98.5543 98.5542C93.9043 103.204 88.4363 106.885 82.1502 109.598C75.8641 112.31 69.1474 113.667 62.0002 113.667ZM62.0002 103.333C66.5641 103.333 70.8696 102.666 74.9168 101.331C78.9641 99.9965 82.6668 98.0806 86.0252 95.5833C82.6668 93.0861 78.9641 91.1701 74.9168 89.8354C70.8696 88.5007 66.5641 87.8333 62.0002 87.8333C57.4363 87.8333 53.1307 88.5007 49.0835 89.8354C45.0363 91.1701 41.3335 93.0861 37.9752 95.5833C41.3335 98.0806 45.0363 99.9965 49.0835 101.331C53.1307 102.666 57.4363 103.333 62.0002 103.333ZM62.0002 56.8333C64.2391 56.8333 66.0904 56.1014 67.5543 54.6375C69.0182 53.1736 69.7502 51.3222 69.7502 49.0833C69.7502 46.8444 69.0182 44.9931 67.5543 43.5292C66.0904 42.0653 64.2391 41.3333 62.0002 41.3333C59.7613 41.3333 57.9099 42.0653 56.446 43.5292C54.9821 44.9931 54.2502 46.8444 54.2502 49.0833C54.2502 51.3222 54.9821 53.1736 56.446 54.6375C57.9099 56.1014 59.7613 56.8333 62.0002 56.8333Z" fill="#1C1B1F"/>
</g>
</svg>
