<svg width="36" height="36" viewBox="0 0 36 36" fill="none" xmlns="http://www.w3.org/2000/svg">
<mask id="mask0_132_777" style="mask-type:alpha" maskUnits="userSpaceOnUse" x="0" y="0" width="36" height="37">
<rect y="0.5" width="36" height="36" fill="#D9D9D9"/>
</mask>
<g mask="url(#mask0_132_777)">
<path d="M18 33.5C15.95 33.5 14.0125 33.1062 12.1875 32.3187C10.3625 31.5312 8.76875 30.4562 7.40625 29.0938C6.04375 27.7313 4.96875 26.1375 4.18125 24.3125C3.39375 22.4875 3 20.55 3 18.5C3 16.425 3.39375 14.4813 4.18125 12.6688C4.96875 10.8563 6.04375 9.26875 7.40625 7.90625C8.76875 6.54375 10.3625 5.46875 12.1875 4.68125C14.0125 3.89375 15.95 3.5 18 3.5C20.075 3.5 22.0187 3.89375 23.8312 4.68125C25.6437 5.46875 27.2313 6.54375 28.5938 7.90625C29.9562 9.26875 31.0312 10.8563 31.8187 12.6688C32.6062 14.4813 33 16.425 33 18.5C33 20.55 32.6062 22.4875 31.8187 24.3125C31.0312 26.1375 29.9562 27.7313 28.5938 29.0938C27.2313 30.4562 25.6437 31.5312 23.8312 32.3187C22.0187 33.1062 20.075 33.5 18 33.5ZM18 30.425C18.65 29.525 19.2125 28.5875 19.6875 27.6125C20.1625 26.6375 20.55 25.6 20.85 24.5H15.15C15.45 25.6 15.8375 26.6375 16.3125 27.6125C16.7875 28.5875 17.35 29.525 18 30.425ZM14.1 29.825C13.65 29 13.2563 28.1438 12.9188 27.2563C12.5813 26.3688 12.3 25.45 12.075 24.5H7.65C8.375 25.75 9.28125 26.8375 10.3687 27.7625C11.4563 28.6875 12.7 29.375 14.1 29.825ZM21.9 29.825C23.3 29.375 24.5438 28.6875 25.6313 27.7625C26.7188 26.8375 27.625 25.75 28.35 24.5H23.925C23.7 25.45 23.4187 26.3688 23.0812 27.2563C22.7437 28.1438 22.35 29 21.9 29.825ZM6.375 21.5H11.475C11.4 21 11.3438 20.5063 11.3062 20.0187C11.2688 19.5312 11.25 19.025 11.25 18.5C11.25 17.975 11.2688 17.4688 11.3062 16.9813C11.3438 16.4938 11.4 16 11.475 15.5H6.375C6.25 16 6.15625 16.4938 6.09375 16.9813C6.03125 17.4688 6 17.975 6 18.5C6 19.025 6.03125 19.5312 6.09375 20.0187C6.15625 20.5063 6.25 21 6.375 21.5ZM14.475 21.5H21.525C21.6 21 21.6562 20.5063 21.6938 20.0187C21.7313 19.5312 21.75 19.025 21.75 18.5C21.75 17.975 21.7313 17.4688 21.6938 16.9813C21.6562 16.4938 21.6 16 21.525 15.5H14.475C14.4 16 14.3438 16.4938 14.3062 16.9813C14.2688 17.4688 14.25 17.975 14.25 18.5C14.25 19.025 14.2688 19.5312 14.3062 20.0187C14.3438 20.5063 14.4 21 14.475 21.5ZM24.525 21.5H29.625C29.75 21 29.8438 20.5063 29.9062 20.0187C29.9688 19.5312 30 19.025 30 18.5C30 17.975 29.9688 17.4688 29.9062 16.9813C29.8438 16.4938 29.75 16 29.625 15.5H24.525C24.6 16 24.6562 16.4938 24.6938 16.9813C24.7313 17.4688 24.75 17.975 24.75 18.5C24.75 19.025 24.7313 19.5312 24.6938 20.0187C24.6562 20.5063 24.6 21 24.525 21.5ZM23.925 12.5H28.35C27.625 11.25 26.7188 10.1625 25.6313 9.2375C24.5438 8.3125 23.3 7.625 21.9 7.175C22.35 8 22.7437 8.85625 23.0812 9.74375C23.4187 10.6312 23.7 11.55 23.925 12.5ZM15.15 12.5H20.85C20.55 11.4 20.1625 10.3625 19.6875 9.3875C19.2125 8.4125 18.65 7.475 18 6.575C17.35 7.475 16.7875 8.4125 16.3125 9.3875C15.8375 10.3625 15.45 11.4 15.15 12.5ZM7.65 12.5H12.075C12.3 11.55 12.5813 10.6312 12.9188 9.74375C13.2563 8.85625 13.65 8 14.1 7.175C12.7 7.625 11.4563 8.3125 10.3687 9.2375C9.28125 10.1625 8.375 11.25 7.65 12.5Z" fill="#1C1B1F"/>
</g>
</svg>
