<svg width="90" height="93" viewBox="0 0 90 93" fill="none" xmlns="http://www.w3.org/2000/svg">
<path d="M35.4 21.3C35.3 21.3 35.5 21.3 35.4 21.3V21.3ZM70.4 28.8C70.4 28.9 70.4 29 70.4 29.1C70.3 29.9 70 30.5 69.5 30.9C69.4 31 69.3 31 69.2 31.1C69.2 31.9 69.2 32.7 69.2 33.5C69.2 33.9 69.2 34.2 69.2 34.6C69.2 35 69.3 35.4 69 35.8C68.7 36.2 68.3 36.4 67.8 36.2C67.4 36.1 67.1 35.8 66.9 35.5C66.7 35.2 66.6 34.9 66.5 34.7C66.3 34.4 66.2 34.1 66.1 33.7C65.9 33.1 65.6 32.5 65.5 31.9C65.3 31.9 65.1 32 65 32C64.8 32 64.6 32.1 64.4 32.1L64.1 32.2C62.5 32.5 61.6 32.7 60.9 32.8C59 33.2 57.6 33.4 57.3 33.5C56.6 33.6 56 33.7 55.9 33.7C53.1 34.2 50.2 34.6 47.4 35.1C42.7 35.9 37.8 36.6 33.1 37.6C33 37.6 32.9 37.6 32.8 37.6C32.4 43.1 31.9 43.5 31.1 43.5C31.1 43.5 31.1 43.5 31 43.5C30.3 43.5 29.7 43 29 37.7C29 37.7 29 37.7 29 37.6C27.6 37.4 26.6 37 25.3 36.4L22.3 35.1C21.3 39.4 20.8 40 20.1 40C20 40 20 40 19.9 40C19.1 39.9 18.6 39.5 18.7 34C18.7 33.8 18.8 33.7 18.8 33.6C18.7 33.5 18.6 33.5 18.6 33.4C17.8 32.4 17.7 31.7 17.7 30.1C17.7 29 17.6 27.3 17.3 24.6L17.1 23.5C16.7 20.5 16.4 18.1 17.8 17.4C18.2 17.2 18.7 17.1 19.4 17.1C19.4 16.7 19.5 16.2 19.5 15.7C19.5 15.1 19.5 14.5 19.5 13.8C19.4 12.9 19.3 12 19.6 11.1C19.9 10.1 20.5 9.19996 21.4 8.69996C22.9 7.99996 24.3 7.99996 25.6 8.09996C26.7 8.09996 27.8 8.09996 28.9 8.09996C30 8.09996 31.2 7.99996 32.3 8.19996C33.2 8.29996 34.2 8.49996 35 8.99996C36.1 7.79996 38.2 7.89996 39.7 7.79996C40.8 7.69996 41.9 7.69996 43 7.59996C43.9 7.59996 44.9 7.39996 45.8 7.59996C46.4 7.69996 46.9 7.99996 47.3 8.29996C48.3 7.29996 49.9 7.19996 51.2 7.19996C52.3 7.19996 53.4 7.09996 54.5 6.99996C56.2 6.89996 58.5 6.89996 59.4 8.69996C59.7 9.29996 59.8 9.99996 59.8 10.7C59.8 11.1 59.9 11.5 59.9 11.8C60 11.8 60.1 11.7 60.1 11.7C60.9 11.6 61.8 11.6 62.6 11.9C63.4 12.2 63.9 12.8 64.2 13.6C64.7 14.9 64.5 16.4 65 17.7C65.4 17.9 65.9 17.9 66.3 17.9C66.9 17.9 67.4 18 67.9 18.3C68.7 18.8 69.1 19.7 69.3 20.7C69.5 21.9 69.6 23.2 69.7 24.4C69.8 25.8 70 27.1 70.1 28.5C70.5 28.6 70.5 28.7 70.4 28.8ZM60.1 19.9L60 20C58.2 20.4 56.4 20.3 54.6 20.4C53.1 20.5 51.6 20.7 50.1 21.2C51.7 22.2 53.1 23.5 54.4 24.9C54.5 25.1 54.6 25.3 54.6 25.5C55 26.4 55.2 27.4 55.2 28.4C58.4 28 61.5 27.5 64.7 27.1V27C64.7 26.9 64.7 26.8 64.7 26.8C64.7 26.8 64.7 26.8 64.7 26.7C64.7 26.4 64.8 26.1 64.8 25.7C64.8 25 64.8 24.4 64.7 23.9C63.2 22.3 61.7 21 60.1 19.9ZM36.9 30.8C37.7 30.7 38.5 30.6 39.3 30.5C39.4 29.6 39.3 28.8 39 28C38.9 27.5 38.7 27.1 38.4 26.7C38.3 26.5 38.2 26.3 38.1 26.2C38.1 26.1 38 26.1 38 26C38 26 38 25.9 37.9 25.9C37.8 25.8 37.8 25.7 37.7 25.5C37.1 24.6 36.5 23.7 35.8 22.8C35.4 23 34.9 23 34.4 23.1C32.1 23.3 29.8 23.6 27.6 24C28.3 24.5 28.6 25.4 28.8 26.2C29.3 28.1 29.5 30.1 29.6 32.1C32.1 31.5 34.5 31.2 36.9 30.8ZM40.8 30.3C45.1 29.7 49.3 29.1 53.6 28.5C53.6 28.4 53.6 28.2 53.6 28.1C53.6 28 53.6 27.8 53.6 27.7C53.6 27.6 53.6 27.6 53.6 27.5C53.6 27.2 53.5 26.9 53.4 26.7C53.4 26.6 53.3 26.4 53.3 26.3C53.3 26.2 53.3 26.2 53.2 26.1V26V25.9C51.7 24.2 49.9 22.8 47.9 21.7C44.4 22 41 22.2 37.5 22.4C38.2 23.4 38.8 24.4 39.5 25.4C39.6 25.5 39.6 25.6 39.6 25.7C40.4 26.9 40.9 28.6 40.8 30.3ZM48.2 9.59996C48.3 9.99996 48.5 10.4 48.5 10.8C48.9 13.8 49.1 16.8 49.1 19.8C50.7 19.3 52.4 18.9 54.1 18.8C55.9 18.7 57.8 18.9 59.5 18.5C59.2 16.6 59 14.8 58.7 12.9C58.6 12.3 58.5 11.7 58.5 11C58.4 10.5 58.4 10.1 58.3 9.59996C57.8 7.99996 55.3 8.39996 54 8.49996C53.1 8.59996 52.2 8.59996 51.3 8.59996C50.4 8.69996 48.8 8.59996 48.2 9.59996ZM36 10.1C36.4 10.9 36.5 11.9 36.5 12.8C36.5 15 36.7 17.1 37.1 19.2C37.2 19.8 37.3 20.3 37.2 20.8C40.6 20.6 44 20.3 47.4 20.1C47.5 20.1 47.5 20 47.6 20C47.6 18.6 47.6 17.3 47.5 15.9C47.4 14.9 47.4 13.8 47.3 12.8C47.2 12 47.2 11.2 46.9 10.4C46.7 9.49996 46.1 8.99996 45.2 8.99996C44.1 8.89996 42.9 9.09996 41.8 9.09996C40.7 9.19996 39.5 9.19996 38.4 9.29996C37.6 9.29996 36.5 9.39996 36 10.1ZM21.2 16.4C21.2 16.6 21.1 16.9 21.2 17.1C21.4 17.1 21.5 17.1 21.6 17.2C22 17.3 22.5 17.4 22.9 17.7C23.7 18.1 24.2 18.8 24.3 19.8C24.4 20.6 24.1 21.7 24.5 22.4C24.8 23 25.7 22.7 26.3 22.6C27.6 22.4 28.9 22.2 30.2 22C31.7 21.8 33.3 21.7 34.8 21.5C34.9 21.5 35.2 21.4 34.9 21.5C35 21.5 35 21.5 35.1 21.5C35.2 21.5 35.3 21.5 35.4 21.4C35.5 21.3 35.5 21.3 35.6 21.2C35.7 21.1 35.7 21 35.8 20.8V20.7C35.8 20.6 35.8 20.5 35.8 20.4C35.8 20.1 35.8 20.1 35.7 19.8C35.6 19.5 35.6 19.1 35.5 18.8C35.3 17.8 35.2 16.8 35.1 15.9C35 14.6 35.1 13.3 34.9 12C34.9 11.6 34.7 11.2 34.6 10.9C34.5 10.8 34.4 10.7 34.3 10.5C34 10.2 33.6 9.99996 33.1 9.89996C32.2 9.69996 31.4 9.59996 30.5 9.59996C29.3 9.59996 28.1 9.59996 26.9 9.59996C25.9 9.59996 24.9 9.49996 23.9 9.59996C21.9 9.69996 20.9 11.3 21.1 13.2C21.3 14.3 21.3 15.3 21.2 16.4ZM21.1 34.6C20.9 34.5 20.6 34.4 20.5 34.3C20.5 35.5 20.5 36.3 20.6 37C20.7 36.5 20.8 35.7 21.1 34.6ZM31.4 37.8C31.2 37.8 31 37.8 30.8 37.8H30.7C30.9 39 31 39.8 31.1 40.5C31.2 39.9 31.3 39 31.4 37.8ZM65.9 30.3C66.4 30.2 66.9 30.2 67.3 30.1C68.1 30 68.3 30 68.6 29.8C68.8 29.6 69 29.3 69 28.9V28.8C69 28.7 69 28.7 69 28.6C68.7 26.2 68.6 23.8 68.2 21.5C68.1 20.8 67.9 19.9 67.2 19.6C66.4 19.3 65.5 19.5 64.7 19.1C64.5 19.1 64.2 19 64.1 18.7C63.8 18 63.6 17.2 63.5 16.5C63.4 15.9 63.4 15.2 63.2 14.6C63.1 14.1 62.9 13.6 62.5 13.4C61.9 13.2 61.1 13.2 60.4 13.3C60.4 13.3 60.4 13.3 60.3 13.3C60.5 15.1 60.8 17 61.1 18.8C62.8 20 64.4 21.4 65.8 22.9C65.9 23 66 23.2 66 23.4C66.3 24.9 66.2 26.4 65.9 27.8C65.9 28 65.7 28.2 65.5 28.3C65.4 28.4 65.3 28.4 65.2 28.4C62.6 28.8 59.9 29.2 57.3 29.5C48 30.8 38.7 32.1 29.3 33.5C28.9 33.8 28.1 33.6 28.1 32.9C28.1 30.8 27.8 28.8 27.4 26.8C27.3 26.2 27.1 25.3 26.5 25.1C26.1 24.9 25.6 25 25.2 24.9C24.8 24.9 24.3 24.8 23.9 24.6C23.6 24.6 23.4 24.4 23.3 24.2C22.9 23.3 22.8 22.4 22.7 21.5C22.6 20.9 22.6 20.3 22.4 19.8C22.3 19.4 22.2 19.2 22 19.1C21.5 19 21 19 20.5 18.7C20.3 18.7 20 18.7 19.7 18.7C19.3 18.7 18.8 18.8 18.6 18.9C18.1 19.2 18.5 22 18.7 23.5L18.9 24.7C19.3 27.5 19.3 29.2 19.3 30.3C19.3 31.8 19.4 32.1 19.8 32.6C19.9 32.7 20.7 33.1 22.7 33.9L25.9 35.3C27.1 35.8 28 36.2 29.3 36.4C30.9 36.6 32.1 36.4 32.7 36.3C37.5 35.4 42.4 34.6 47.1 33.8C49.9 33.3 52.8 32.9 55.6 32.4C55.7 32.4 56.2 32.3 57 32.2C57.3 32.1 58.6 31.9 60.6 31.5C61.3 31.4 62.2 31.2 63.8 30.9L64.1 30.8C64.3 30.8 64.5 30.7 64.7 30.7C65.1 30.4 65.5 30.4 65.9 30.3ZM67.8 31.6C67.7 31.6 67.6 31.6 67.5 31.6C67.4 31.6 67.3 31.6 67.1 31.6C67.2 31.8 67.2 32.1 67.3 32.3C67.4 32.5 67.4 32.6 67.5 32.8C67.5 32.9 67.6 32.9 67.6 33L67.7 33.1C67.7 33.2 67.8 33.3 67.8 33.4C67.8 33.3 67.8 33.3 67.8 33.2C67.8 32.8 67.8 32.2 67.8 31.6ZM81.4 59.7C81.3 60 81.1 60.2 80.9 60.2L77.7 61C77.8 61.1 77.9 61.3 77.9 61.4V73C77.9 73.4 77.6 73.8 77.1 73.8C77 73.8 77 73.8 76.9 73.8C76.8 73.9 76.7 73.9 76.7 73.9L35.5 84.6C35.4 84.7 35.2 84.8 35 84.8H34.9C34.8 84.8 34.8 84.8 34.7 84.8C34.7 84.8 34.7 84.8 34.6 84.8C34.5 85 34.2 85.2 34 85.2C33.9 85.2 33.8 85.2 33.7 85.1L14.4 75.3H14.3C14 75.3 13.8 75.1 13.6 74.9C13.2 74.7 13.1 74.3 13.3 73.9C13.4 73.8 13.5 73.7 13.6 73.6V63C13.6 62.9 13.6 62.8 13.7 62.7L9.6 60.7C9.2 60.6 9 60.4 9 60.1C9 59.8 9.1 59.6 9.3 59.4L16.2 54.1C16.2 53.8 16.5 53.5 16.8 53.5L46.4 48C46.2 44.6 46 41.3 45.8 37.9C45.7 36.9 47.3 36.9 47.4 37.9C47.6 41.2 47.8 44.4 48 47.7L57.3 46C57.7 45.9 58 46.1 58.1 46.5L73.8 53C74 53.1 74.1 53.2 74.2 53.3H74.3C74.5 53.2 74.8 53.3 75 53.5L81.1 59C81.3 59.2 81.4 59.5 81.4 59.7ZM45.4 53.7C45.6 53.6 45.8 53.6 46 53.6C46.2 53.7 46.4 53.8 46.5 54C46.6 54.1 46.7 54.2 46.8 54.4C46.7 52.8 46.6 51.2 46.5 49.6L18.8 54.7L35.2 62.5L72 53.9L57.4 47.8C57.3 47.7 57.2 47.7 57.1 47.5L48.1 49.2C48.2 50.6 48.3 52.1 48.4 53.5C48.4 53.4 48.5 53.4 48.5 53.3C48.7 52.9 49.2 52.8 49.6 53C50 53.2 50.1 53.7 49.9 54.1C49.4 55.1 48.9 56.2 48.5 57.2C48.4 57.4 48.1 57.6 47.8 57.6C47.5 57.6 47.3 57.4 47.1 57.2C46.5 56.4 45.9 55.5 45.3 54.7C44.9 54.5 45.1 54 45.4 53.7ZM11.1 59.9L28.7 68.4L33.6 63.4L16.9 55.4L11.1 59.9ZM34.1 83.6C34.2 83.5 34.2 83.5 34.3 83.4L34.5 64.6L29.5 69.7C29.3 70 29.1 70 28.9 70C28.8 70 28.7 70 28.6 69.9L14.9 63.3V73.8L34.1 83.6ZM76.4 61.4L41.4 70C41.3 70 41.3 70 41.2 70C41 70 40.8 69.9 40.7 69.8L36 65L35.8 83L76.4 72.4V61.4ZM79.1 59.2L74.3 55L36.8 63.8L41.5 68.5L79.1 59.2Z" fill="black"/>
</svg>
