<svg width="90" height="93" viewBox="0 0 90 93" fill="none" xmlns="http://www.w3.org/2000/svg">
<path d="M43.4 51.5H33.5999L33.5 50.9001C32.7 47.9001 32.2999 44.9 32.2999 41.8C32.2999 38.7 32.7 35.7001 33.5 32.7001L33.5999 32.1H43.7C48.2999 32.1 50 35 50 37.5C50 39.2001 49.5 40.6 48.4 41.5C49.7 42.5 50.4 43.9 50.4 45.6C50.3 49.3 47.7 51.5 43.4 51.5ZM34.7 50H43.4C46.9 50 48.9 48.5 48.9 45.8C48.9 44.7 48.5 43.3001 46.7999 42.4001L45.5 41.8L46.7 41.1C48.2 40.2 48.5 38.7 48.5 37.6C48.5 35.7 47.2 33.7001 43.7 33.7001H34.7C34 36.4001 33.7 39 33.7 41.8C33.7 44.6 34 47.3 34.7 50ZM43.2 48.5H36.4L36.2999 47.9001C36 46.5001 35.8 45 35.7 43.3V42.5H43.5C45.5 42.5 46.7 43.7001 46.7 45.5C46.7 47.4 45.4 48.5 43.2 48.5ZM37.5999 47H43.2C44.9 47 45.0999 46.3 45.0999 45.5C45.0999 44.5 44.5 44 43.4 44H37.2C37.2999 45.1 37.3999 46 37.5999 47ZM43.2 41H35.7V40.2001C35.8 38.5 36 37.2 36.2999 35.8L36.4 35.2001H43.2C45.1 35.2001 46.2999 36.3 46.2999 38.1C46.2999 39.9 45.1 41 43.2 41ZM37.2 39.5H43.2C44.6 39.5 44.7999 38.7 44.7999 38.1C44.7999 37.5 44.6 36.7001 43.2 36.7001H37.5999C37.3999 37.6 37.2999 38.5 37.2 39.5ZM34.7999 61.3C32.7999 61.3 31.2 62.9001 31.2 64.9001C31.2 66.9001 32.7999 68.5 34.7999 68.5C36.7999 68.5 38.4 66.9001 38.4 64.9001C38.4 62.9001 36.7999 61.3 34.7999 61.3ZM74.9 59.5C72.9 59.5 71.3 61.1 71.3 63.1C71.3 65.1 72.9 66.7 74.9 66.7C76.9 66.7 78.5 65.1 78.5 63.1C78.5 61.1 76.9 59.5 74.9 59.5ZM8.69995 54.3H4.99995C4.59995 54.3 4.19995 54.6 4.19995 55.1C4.19995 55.6 4.49995 55.9001 4.99995 55.9001H8.69995C9.09995 55.9001 9.49995 55.6 9.49995 55.1C9.49995 54.6 9.09995 54.3 8.69995 54.3ZM87.6 47.2001L76.9 30.3C76.8 30.1 76.5 30 76.3 30H61.7V24.9C61.7 24.8 61.7 24.8001 61.7 24.7001C61.7999 24.4001 61.5999 24 61.2999 23.9L50.0999 19C50 19 50 19 49.9 19C49.8 18.9 49.5999 18.8 49.5 18.8H12.2C12.1 18.8 12.1 18.8 12 18.8H11.9C11.8 18.8 11.8 18.9 11.7 18.9C11.7 18.9 11.7 18.9 11.6 18.9C11.5 19 11.5 19 11.5 19.1C11.5 19.2 11.5 19.2 11.5 19.3V19.4V44.1H9.49995C9.09995 44.1 8.69995 44.4001 8.69995 44.9001C8.69995 45.4001 8.99995 45.7001 9.49995 45.7001H11.5V49.3H5.19995C4.79995 49.3 4.39995 49.6 4.39995 50.1C4.39995 50.6 4.69995 50.9001 5.19995 50.9001H11.4V58.1C11.4 58.5 11.7 58.8 12 58.8C12.1 58.9 12.2 59 12.3 59L23.5 64C23.6 64 23.6999 64.1 23.7999 64.1C23.9 64.1 23.9 64.1 24 64.1H28C28 64.4 27.9 64.7001 27.9 65C27.9 68.9001 31 72 34.9 72C38.8 72 41.9 68.9001 41.9 65C41.9 64.7001 41.9 64.5 41.9 64.2L60.9 64C61.3 64 61.5999 63.7001 61.5999 63.3H68C68.0999 67.1 71.2 70.1 75 70.1C78.7 70.1 81.7 67.2 82 63.6H87C87.2 63.6 87.4 63.5 87.5 63.4001C87.6 63.3001 87.7 63.1001 87.7 62.9001V47.6C87.7 47.5 87.7 47.4001 87.6 47.2001ZM86.2 48.8H72.7V37.3H79.5L86.2 47.8V48.8ZM23.7999 24.4C23.6999 24.4 23.6999 24.4 23.7999 24.4C23.6999 24.4 23.7 24.3 23.6 24.3L14.3 20.2001H30.7999L30.9 20.3L39.7999 24.2001L23.7999 24.4ZM43 24.2001C42.9 24.0001 42.7999 23.9 42.5999 23.8L34.5 20.2001H49.4L49.5 20.3L58.0999 24.1L43 24.2001ZM13 57.7001V50.9001H16.4C16.8 50.9001 17.2 50.6 17.2 50.1C17.2 49.6 16.9 49.3 16.4 49.3H13V45.7001H15C15.4 45.7001 15.8 45.4001 15.8 44.9001C15.8 44.4001 15.5 44.1 15 44.1H13V21.1L23 25.7001V62.1L13 57.7001ZM34.9 70.5C31.9 70.5 29.4 68 29.4 65C29.4 62 31.9 59.5 34.9 59.5C37.9 59.5 40.4 62 40.4 65C40.4 68 37.9 70.5 34.9 70.5ZM34.9 57.9001C31.9 57.9001 29.2999 59.8 28.2999 62.5H24.5V25.9L60.0999 25.6V62.5L41.4 62.6C40.5 59.9 37.9 57.9001 34.9 57.9001ZM75 68.7C72 68.7 69.5 66.2001 69.5 63.2001C69.5 60.2001 72 57.7001 75 57.7001C78 57.7001 80.5 60.2001 80.5 63.2001C80.5 66.2001 78 68.7 75 68.7ZM81.9 62.2001C81.4 58.8 78.5 56.2001 75 56.2001C71.6 56.2001 68.7 58.7001 68.0999 61.9001H61.7V31.4H75.8L78.6 35.8H72C71.6 35.8 71.2 36.1 71.2 36.6V49.6C71.2 50 71.5 50.4001 72 50.4001H86.3V62.3L81.9 62.2001Z" fill="#1E1E1E"/>
</svg>
