<svg width="100" height="100" viewBox="0 0 100 100" fill="none" xmlns="http://www.w3.org/2000/svg">
<path d="M8.49999 60.3C8.39999 60.5 8.29999 60.8 8.49999 61.1C8.69999 61.4 8.89999 61.5 9.19999 61.5H23.1V74.7C23.1 74.9 23.2 75.1 23.4 75.3C23.8 75.6 25.2 76.5 27.3 76.5C27.4 76.5 27.5 76.5 27.6 76.5C29.6 76.4 30.9 75.5 31.4 75.1C31.6 75 31.6 74.8 31.6 74.6V61.6H44.8V68.7C44.8 68.9 44.9 69.1 45.1 69.3C45.8 69.8 47.1 70.5 49 70.5C49.1 70.5 49.2 70.5 49.3 70.5C51.3 70.4 52.6 69.5 53.1 69.1C53.3 69 53.3 68.8 53.3 68.6V55.9C55.2 55.9 57.1 55.9 59 55.9L57.5 58.3C57.4 58.5 57.3 58.8 57.5 59.1C57.6 59.3 57.9 59.5 58.2 59.5H62.9L53.3 75.5C53.2 75.7 53.1 76 53.3 76.3C53.4 76.5 53.7 76.7 54 76.7H68.6V89.9C68.6 90.1 68.7 90.3 68.9 90.5C69.3 90.8 70.7 91.7 72.8 91.7C72.9 91.7 73 91.7 73.1 91.7C75.1 91.6 76.5 90.7 76.9 90.3C77.1 90.2 77.1 90 77.1 89.8V76.8H91.1C91.4 76.8 91.6 76.7 91.8 76.4C91.9 76.2 91.9 75.9 91.8 75.6L82.5 60.9C82.5 60.8 82 60.2 81.6 59.6C83.3 59.6 85 59.6 86.7 59.7C87 59.7 87.2 59.6 87.4 59.3C87.5 59.1 87.5 58.8 87.4 58.5L78.4 44.3H81.3C81.6 44.3 81.8 44.1 82 43.9C82.1 43.7 82.1 43.4 82 43.1L73.3 30C73 29.6 72.3 29.6 72.1 30L63.4 42.7C63.2 42.9 63.2 43.2 63.4 43.5C63.5 43.7 63.8 43.9 64.1 43.9H66.8L63.7 48.8C61 44.3 58.8 40.6 58.2 39.7L57.9 39.2C57.7 39 57.6 38.7 57.4 38.4C59.1 38.4 60.8 38.4 62.5 38.5C62.8 38.5 63 38.4 63.2 38.1C63.3 37.9 63.3 37.6 63.2 37.3L54.2 23.1H57.1C57.4 23.1 57.6 22.9 57.8 22.7C57.9 22.5 57.9 22.2 57.8 21.9L48.8 9.20002C48.5 8.80002 47.8 8.80002 47.6 9.20002L38.8 22C38.6 22.2 38.6 22.5 38.8 22.8C38.9 23 39.2 23.2 39.5 23.2H42.2L36 32.8L33.6 28.9H36.5C36.8 28.9 37 28.7 37.2 28.5C37.3 28.3 37.3 28 37.2 27.7L28.4 15C28.1 14.6 27.4 14.6 27.2 15L18.5 27.7C18.3 27.9 18.3 28.2 18.5 28.5C18.6 28.7 18.9 28.9 19.2 28.9H21.9L12.9 43.1C12.8 43.3 12.7 43.6 12.9 43.9C13 44.1 13.3 44.3 13.6 44.3H18.3L8.49999 60.3ZM25.3 73C25.2 73.5 25 74 25.1 74.6C24.8 74.5 24.6 74.4 24.4 74.3V61.5H25.5C25.5 62.4 25.9 63.1 26.2 64C26.4 64.6 26.6 65.2 26.5 65.8C26.3 66.5 25.9 67 25.5 67.6C24.9 68.7 25 69.9 25.1 71.1C25.3 71.7 25.4 72.4 25.3 73ZM28.1 75C27.9 75 27.7 75.1 27.5 75.1C27.3 75.1 27.1 75.1 26.9 75.1C27 74.3 26.9 73.4 26.9 72.6C26.9 72.2 26.9 71.8 27 71.3C27.1 71 27.2 70.4 27.5 70.2C28 69.9 28.1 70.6 28.1 70.9C28.1 71.4 28.1 71.9 28.1 72.3C28.2 73.2 28.2 74.1 28.1 75ZM30.3 74.1C30 74.3 29.4 74.7 28.6 74.8C28.7 74 28.7 73.2 28.7 72.4C28.7 72 28.7 71.5 28.7 71.1C28.7 70.7 28.7 70.4 28.5 70C28.2 69.4 27.4 69.5 27 70C26.6 70.6 26.5 71.4 26.5 72.1C26.5 73 26.6 73.9 26.5 74.8C26.2 74.8 25.9 74.7 25.6 74.6C25.6 74.6 25.7 74.5 25.6 74.4C25.4 73.8 25.8 73.2 25.8 72.6C25.8 72 25.7 71.3 25.6 70.7C25.5 70.1 25.5 69.5 25.5 68.8C25.6 68 25.9 67.4 26.3 66.8C26.8 66 27.1 65.2 26.8 64.2C26.5 63.2 25.9 62.3 25.9 61.3H27.8C27.9 62 28.4 62.7 28.5 63.4C28.7 64.5 28.1 65.5 28.3 66.6C28.3 67 28.5 67.3 28.7 67.6C29 67.9 29.3 68.1 29.6 68.4C29.9 68.6 30 69 30.1 69.4V74.1H30.3ZM30.3 68.5C30.2 68.4 30.2 68.4 30.1 68.3C29.8 68 29.4 67.9 29.2 67.6C28.9 67.2 28.9 66.8 28.9 66.3C28.9 65.4 29.3 64.5 29.1 63.5C29 62.8 28.5 62.2 28.4 61.5H30.3V68.5ZM10.5 60C11.6 58.3 13.4 55.4 13.4 55.3C13.4 55.2 14.5 53.6 14.5 53.5C14.5 53.4 15.5 51.9 15.5 51.8L20.5 43.9C20.7 43.6 20.6 43.1 20.3 42.9C20.2 42.8 20 42.8 19.9 42.8C19.8 42.8 19.7 42.7 19.6 42.7H14.7L23.6 28.6C23.8 28.2 23.7 27.8 23.4 27.6C23.3 27.6 23.3 27.5 23.2 27.5C23.1 27.4 23 27.4 22.8 27.4H20.4L27.7 16.7L35 27.4H32.2C31.8 27.4 31.5 27.7 31.5 28.2C31.5 28.3 31.5 28.4 31.6 28.5C31.6 28.6 31.6 28.7 31.7 28.8L40.5 42.7C38.9 42.7 37.3 42.7 35.6 42.6C35.5 42.6 35.4 42.6 35.3 42.7C35.2 42.7 35.1 42.7 35.1 42.8C34.7 43 34.6 43.5 34.9 43.8L45 60H10.5ZM44.8 56.9L44 55.7C44.3 55.7 44.5 55.7 44.8 55.7V56.9ZM47.6 68.8C47 68.6 46.5 68.4 46.2 68.2V64.8C46.6 64.8 46.6 65.5 46.6 65.8C46.6 66 46.7 66.2 46.8 66.3C46.9 66.5 47.1 66.5 47.3 66.7C47.6 67 47.7 67.4 47.7 67.8C47.7 68.1 47.6 68.5 47.6 68.8ZM49.2 69C48.8 69 48.4 69 48.1 68.9C48.1 68 48.4 66.9 47.6 66.3C47.4 66.1 47.2 66.1 47.2 65.8C47.2 65.6 47.2 65.3 47.1 65.1C47 64.7 46.7 64.5 46.3 64.4V63.1H46.4C46.9 62.9 47.7 62 48.2 62.8C48.6 63.4 48.2 64.3 48.3 65C48.4 65.7 48.9 66.2 49.2 66.8C49.4 67.4 49.3 68.2 49.2 69ZM50.8 68.7C50.5 68.8 50.1 68.9 49.7 69C49.8 68.2 49.8 67.4 49.6 66.6C49.5 66.2 49.2 65.9 49 65.5C48.7 65 48.7 64.6 48.7 64C48.8 63.3 48.8 62.4 48.1 62C47.4 61.6 46.8 62.2 46.2 62.5V61.4H46.3C46.6 61.4 46.8 61.3 47 61C47.1 60.8 47.1 60.5 47 60.2L46.2 59V55.6C46.4 55.6 46.5 55.6 46.7 55.6C46.7 56.3 46.8 57.1 46.9 57.8C47 58.3 47.1 58.8 47.3 59.3C47.4 59.6 47.5 60.2 47.9 60.3C48.3 60.4 48.5 60.1 48.6 59.8C48.7 59.3 48.8 58.8 48.8 58.3C48.9 57.4 49.1 56.5 49.2 55.6C49.5 55.6 49.9 55.6 50.2 55.6C50.2 56.5 50.8 57.4 50.4 58.2C50.2 58.7 49.7 59.1 49.5 59.6C49.3 60 49.3 60.6 49.4 61C49.7 62.2 50.8 63 50.8 64.3C50.9 65.8 50.8 67.3 50.8 68.7ZM47.2 55.7C47.5 55.7 47.8 55.7 48.1 55.7C48.3 55.7 48.5 55.7 48.7 55.7C48.6 56.4 48.5 57 48.4 57.7C48.3 58.1 48.3 58.6 48.2 59C48.2 59.2 48.1 59.4 48.1 59.6C48.1 59.7 48 60.1 47.9 59.9C47.7 59.6 47.6 59.1 47.5 58.7C47.4 58.3 47.3 57.9 47.2 57.5C47.2 56.9 47.2 56.3 47.2 55.7ZM52 68.1C51.8 68.2 51.6 68.4 51.3 68.5C51.3 67.3 51.3 66 51.3 64.8C51.3 64.3 51.3 63.7 51.1 63.2C50.9 62.7 50.5 62.3 50.3 61.9C50 61.3 49.8 60.7 50 60.1C50.2 59.5 50.7 59.1 50.9 58.6C51.3 57.7 50.6 56.7 50.7 55.8C51.2 55.8 51.6 55.8 52.1 55.8L52 68.1ZM48.1 54.2C46.4 54.2 44.8 54.2 43.1 54.2L36.8 44.2C38.5 44.2 40.2 44.2 41.9 44.3C42.2 44.3 42.4 44.2 42.6 43.9C42.7 43.7 42.7 43.4 42.6 43.1L36.9 34.1L44 22.8C44.2 22.4 44.1 22 43.8 21.8C43.7 21.8 43.7 21.7 43.6 21.7C43.5 21.6 43.4 21.6 43.2 21.6H40.8L48.2 11L55.5 21.7H52.7C52.3 21.7 52 22 52 22.5C52 22.6 52 22.7 52.1 22.8C52.1 22.9 52.1 23 52.2 23.1L60.9 37C59.3 37 57.7 37 56 36.9C55.9 36.9 55.8 36.9 55.7 37C55.6 37 55.5 37.1 55.4 37.1C55.1 37.3 54.9 37.8 55.2 38.1C55.7 38.9 56.1 39.5 56.4 40L56.7 40.5C57.3 41.4 59.7 45.4 62.5 50.2L60 54.2C56.1 54.2 52.1 54.2 48.1 54.2ZM70.9 88.1C70.8 88.6 70.6 89.1 70.7 89.7C70.4 89.6 70.2 89.5 70 89.4V76.5H71.1C71.1 77.4 71.5 78.1 71.8 79C72 79.6 72.2 80.2 72.1 80.8C71.9 81.5 71.5 82 71.1 82.6C70.5 83.7 70.6 84.9 70.7 86.1C70.8 86.7 71 87.4 70.9 88.1ZM73.6 90C73.4 90 73.2 90.1 73 90.1C72.8 90.1 72.6 90.1 72.4 90.1C72.5 89.3 72.4 88.4 72.4 87.6C72.4 87.2 72.4 86.8 72.5 86.3C72.6 86 72.7 85.4 73 85.2C73.5 84.9 73.6 85.6 73.6 85.9C73.6 86.4 73.6 86.9 73.6 87.3C73.8 88.2 73.7 89.1 73.6 90ZM75.8 89.1C75.5 89.3 74.9 89.7 74.1 89.8C74.2 89 74.2 88.2 74.2 87.4C74.2 87 74.2 86.5 74.2 86.1C74.2 85.7 74.2 85.4 74 85C73.7 84.4 72.9 84.5 72.5 85C72.1 85.6 72 86.4 72 87.1C72 88 72.1 88.9 72 89.8C71.7 89.8 71.4 89.7 71.1 89.6C71.1 89.6 71.2 89.5 71.1 89.4C70.9 88.8 71.3 88.2 71.3 87.6C71.3 87 71.2 86.3 71.1 85.7C71 85.1 71 84.5 71 83.8C71.1 83 71.4 82.4 71.8 81.8C72.3 81 72.6 80.2 72.3 79.2C72 78.2 71.4 77.3 71.4 76.3H73.3C73.4 77 73.9 77.7 74 78.4C74.2 79.5 73.6 80.5 73.8 81.6C73.8 82 74 82.3 74.2 82.6C74.5 82.9 74.8 83.1 75.1 83.4C75.4 83.6 75.5 84 75.6 84.4V89.1H75.8ZM75.8 83.5C75.7 83.4 75.7 83.4 75.6 83.3C75.3 83 74.9 82.9 74.7 82.6C74.4 82.2 74.4 81.8 74.4 81.3C74.4 80.4 74.8 79.5 74.6 78.5C74.5 77.8 74 77.2 73.9 76.5H75.8V83.5ZM55.3 75C56.4 73.3 58.2 70.4 58.2 70.3L59.3 68.5C59.3 68.4 60.3 66.9 60.3 66.8C60.5 66.5 63.3 62 63.8 61.3L65.3 58.9C65.5 58.5 65.4 58.1 65.1 57.9C65 57.8 64.8 57.8 64.7 57.8C64.6 57.8 64.5 57.7 64.4 57.7H59.5L68.4 43.6C68.6 43.2 68.5 42.8 68.2 42.6C68.1 42.6 68.1 42.5 68 42.5C67.9 42.4 67.8 42.4 67.6 42.4H65.2L72.5 31.7L79.8 42.4H77C76.6 42.4 76.3 42.7 76.3 43.2C76.3 43.3 76.3 43.4 76.4 43.5C76.4 43.6 76.4 43.7 76.5 43.8L85.3 57.7C83.7 57.7 82.1 57.7 80.4 57.6C80.3 57.6 80.2 57.6 80.1 57.7C80 57.7 79.9 57.7 79.8 57.8C79.5 58 79.3 58.5 79.6 58.8C79.7 58.9 81.1 61.1 81.1 61.2L89.8 75H55.3Z" fill="black"/>
</svg>
